<svg xmlns="http://www.w3.org/2000/svg" width="151" height="150" viewBox="0 0 151 150" version="1.1">
	<path d="M 1 75 L 1 150 76 150 L 151 150 151 75 L 151 0 76 0 L 1 0 1 75 M 35.500 38.337 C 24.374 42.046, 15.519 49.497, 11.203 58.780 C 8.960 63.604, 8.551 65.831, 8.595 73 C 8.666 84.626, 11.418 91.578, 18.920 99.080 C 26.600 106.760, 33.402 109.415, 45.521 109.464 C 53.727 109.497, 55.143 109.205, 61.180 106.232 C 73.414 100.209, 79.721 91.479, 84.978 73.286 C 87.656 64.021, 91.981 58.277, 98.936 54.750 C 106.048 51.143, 111.836 51.117, 118.944 54.659 C 122.898 56.630, 125.061 58.573, 127.290 62.159 C 128.945 64.822, 130.470 67, 130.678 67 C 131.814 67, 142.999 60.855, 142.991 60.236 C 142.985 59.831, 141.657 57.191, 140.038 54.369 C 128.148 33.638, 97.425 31.398, 80.588 50.034 C 76.085 55.019, 72.559 62.007, 70.136 70.753 C 67.903 78.809, 66.130 82.503, 62.327 87.023 C 58.726 91.302, 50.717 94.980, 45 94.980 C 40.031 94.980, 31.577 91.496, 28.706 88.264 C 26.936 86.272, 27.162 86.100, 45.432 75.552 L 63.953 64.860 68.002 57.180 L 72.052 49.500 68.276 46.290 C 59.165 38.545, 45.109 35.134, 35.500 38.337 M 34.970 54.750 C 28.804 57.975, 26.470 60.787, 24.484 67.386 L 23.033 72.208 25.266 70.773 C 26.495 69.984, 33.013 66.054, 39.750 62.041 C 46.487 58.027, 52 54.409, 52 54.002 C 52 53.240, 46.149 52.031, 42.364 52.011 C 41.189 52.005, 37.862 53.237, 34.970 54.750 M 125.232 86.564 C 115.282 97.172, 104.533 97.628, 94.762 87.857 C 92.025 85.120, 89.721 83.020, 89.643 83.190 C 89.564 83.361, 88.037 86.443, 86.250 90.040 C 84.463 93.636, 83 97.083, 83 97.700 C 83 98.316, 85.813 100.588, 89.250 102.747 C 105.689 113.076, 119.964 112.448, 132.553 100.845 C 137.140 96.616, 143 88.992, 143 87.252 C 143 86.764, 140.412 85.550, 137.250 84.554 C 134.088 83.558, 131.050 82.579, 130.500 82.378 C 129.950 82.178, 127.580 84.061, 125.232 86.564" stroke="none" fill="black" fill-rule="evenodd"/>
</svg>